<svg xmlns="http://www.w3.org/2000/svg" width="1340.288" height="240" viewBox="0 0 1340.288 240"><path d="M7.926 134.267h17.223V2.355H7.926v131.912zm133.872-53.624c0 28.96-12.72 41.88-32.098 41.88-17.612 0-30.726-12.526-30.726-41.88V2.355H61.75v77.699c0 41.098 20.355 56.367 47.361 56.367 28.578 0 49.91-16.44 49.91-56.956V2.355h-17.223v78.288zm38.756-78.288v14.48h40.12v117.432h17.224V16.835h40.321V2.355h-97.665z" fill="#ff9701"/><path d="M437.926 116.455c12.126-12.132 18.984-29.75 18.984-51.276 0-21.338-6.858-36.6-18.79-47.367-11.554-10.566-28.972-16.44-53.43-16.44-13.509 0-25.84 1.177-36.218 2.937v129.57c8.618.976 18.595 1.565 30.927 1.565 25.646 0 46.001-6.657 58.527-18.99zM365.501 16.64c4.503-.983 11.155-1.76 19.966-1.76 36.013 0 53.625 19.766 53.43 50.88 0 35.625-19.566 55.98-56.173 55.98-6.651 0-12.914-.195-17.223-.783V16.64zm120.175 117.626h17.223V2.355h-17.223v131.912zm164.21-119.78c10.96 0 20.16 2.348 26.424 5.48l4.297-13.898C676.116 3.72 665.544.2 649.29.2c-40.903 0-68.893 27.79-68.893 69.282 0 43.453 27.795 66.94 64.985 66.94 16.046 0 28.766-3.132 34.835-6.264l-3.326-13.703c-6.845 3.331-17.417 5.48-27.989 5.48-31.898 0-50.493-20.55-50.493-53.042 0-34.64 20.55-54.407 51.476-54.407zM757.923 0c-35.223 0-61.052 27.407-61.052 69.288 0 39.927 24.263 67.133 59.292 67.133 33.67 0 61.26-24.27 61.26-69.482 0-39.338-23.28-66.939-59.5-66.939zm-.777 122.523c-27.006 0-42.275-25.246-42.275-53.63 0-28.766 14.092-54.995 42.47-54.995s42.08 27.4 42.08 53.824c0 29.944-15.268 54.801-42.275 54.801zm149.148-19.766c3.52 16.44 6.457 27.595 8.606 31.51h17.611c-2.73-5.086-5.862-17.812-10.171-36.207-3.132-13.703-9.2-23.098-19.178-26.618v-.588c13.692-4.698 24.652-16.247 24.652-33.47 0-10.372-3.908-19.372-10.366-25.246-8.023-7.24-19.966-10.766-38.172-10.766-11.543 0-24.07 1.177-32.675 2.743v130.152h17.017v-57.15h16.058c15.451.588 22.697 7.434 26.618 25.64zm-42.676-38.561V16.052c2.937-.783 8.618-1.372 16.835-1.372 18.012 0 30.332 7.44 30.332 24.464 0 15.075-11.543 25.052-29.737 25.052h-17.43zm123.513 57.933c-11.75 0-22.71-3.714-30.344-8.606l-4.503 14.286c7.051 4.698 20.95 8.612 33.67 8.612 31.12 0 45.989-17.812 45.989-38.167 0-19.377-11.155-30.138-33.464-38.755-18.206-7.04-26.23-13.109-26.23-25.44 0-9.007 6.847-19.767 24.859-19.767 11.943 0 20.743 3.72 24.858 6.263l4.697-13.898C1020.983 3.332 1011.005.2 997.69.2c-25.634 0-42.663 15.263-42.663 35.812 0 18.401 13.315 29.75 34.835 37.579 17.818 6.657 24.858 13.897 24.858 26.035 0 13.309-10.172 22.503-27.59 22.503zm92.367-119.774h-17.223v131.912h17.223V2.355zm125.467 114.1c-6.846 3.331-17.418 5.48-27.99 5.48-31.897 0-50.492-20.55-50.492-53.042 0-34.64 20.55-54.407 51.476-54.407 10.96 0 20.16 2.349 26.423 5.48l4.31-13.897C1204.187 3.72 1193.615.2 1177.375.2c-40.916 0-68.893 27.79-68.893 69.282 0 43.453 27.783 66.94 64.973 66.94 16.046 0 28.766-3.132 34.835-6.264l-3.326-13.703zm54.013-23.68h46.778l14.092 41.492h18.206L1293.036 2.355h-20.355l-45.019 131.912h17.612l13.704-41.493zm16.446-51.477c2.731-8.023 4.697-16.246 6.652-23.874h.388c1.954 7.628 3.92 15.457 6.846 24.075l13.12 37.966h-39.932l12.926-38.167zM0 221.175h7.932v-60.713H0v60.713zm43.987-44.497c-7.21 0-12.253 4.054-14.414 8.108h-.182l-.449-7.21h-7.027c.273 3.605.364 7.21.364 11.798v31.8h7.926v-26.217c0-1.347.182-2.694.54-3.69 1.438-4.418 5.492-8.108 10.626-8.108 7.483 0 10.093 5.85 10.093 12.878v25.138h7.926v-25.95c0-14.954-9.37-18.547-15.403-18.547zm42.385 19.274c-5.675-2.257-8.2-3.871-8.2-7.476 0-3.241 2.525-5.948 7.21-5.948 4.054 0 7.204 1.53 8.915 2.61l1.894-5.766c-2.343-1.529-6.215-2.694-10.627-2.694-9.279 0-15.044 5.765-15.044 12.793 0 5.22 3.69 9.455 11.622 12.332 5.765 2.16 8.016 4.15 8.016 7.926 0 3.702-2.706 6.493-8.38 6.493-3.964 0-8.109-1.626-10.542-3.07l-1.888 5.947c3.06 1.808 7.477 3.07 12.253 3.07 10.178 0 16.21-5.413 16.21-13.156 0-6.482-3.963-10.269-11.44-13.06zm31.205-28.826l-7.75 2.342v8.108h-6.754v6.032h6.755v23.778c0 5.147.904 9.018 3.064 11.446 1.894 2.075 4.867 3.338 8.557 3.338 3.065 0 5.499-.546 7.028-1.08l-.358-6.045c-1.171.364-2.434.546-4.594.546-4.418 0-5.948-3.058-5.948-8.472v-23.51h11.35v-6.033h-11.35v-10.45zm24.264-6.761c-2.974 0-4.959 2.257-4.959 4.952 0 2.707 1.894 4.867 4.776 4.867 3.156 0 5.044-2.16 5.044-4.867 0-2.792-1.979-4.952-4.861-4.952zm-3.963 60.81h7.925v-43.599h-7.925v43.599zm30.647-54.05l-7.75 2.343v8.108h-6.754v6.032h6.754v23.778c0 5.147.905 9.018 3.065 11.446 1.894 2.075 4.867 3.338 8.557 3.338 3.065 0 5.498-.546 7.028-1.08l-.358-6.045c-1.172.364-2.434.546-4.594.546-4.418 0-5.948-3.058-5.948-8.472v-23.51h11.349v-6.033h-11.349v-10.45zm56.78 10.451h-7.926v26.666c0 1.53-.267 2.974-.722 4.054-1.438 3.605-5.134 7.295-10.45 7.295-7.113 0-9.729-5.68-9.729-13.97v-24.045h-7.926v25.49c0 15.22 8.2 19.104 15.045 19.104 7.75 0 12.429-4.6 14.413-8.108h.182l.45 7.113h7.027c-.273-3.423-.364-7.392-.364-11.98v-31.619zm22.752-10.45l-7.75 2.342v8.108h-6.754v6.032h6.754v23.778c0 5.147.904 9.018 3.065 11.446 1.893 2.075 4.867 3.338 8.557 3.338 3.065 0 5.498-.546 7.028-1.08l-.358-6.045c-1.172.364-2.434.546-4.594.546-4.419 0-5.948-3.058-5.948-8.472v-23.51h11.349v-6.033h-11.349v-10.45zm76.43 29.36c0 13.34-5.85 19.287-14.77 19.287-8.109 0-14.141-5.765-14.141-19.286v-36.025h-7.926v35.757c0 18.923 9.37 25.95 21.8 25.95 13.144 0 22.964-7.573 22.964-26.217v-35.49h-7.926v36.025zm43.029-19.808c-7.198 0-12.247 4.054-14.408 8.108h-.182l-.449-7.21h-7.027c.267 3.605.364 7.21.364 11.798v31.8h7.926v-26.217c0-1.347.182-2.694.534-3.69 1.444-4.418 5.498-8.108 10.632-8.108 7.477 0 10.087 5.85 10.087 12.878v25.138h7.938v-25.95c0-14.954-9.37-18.547-15.415-18.547zm32.298-16.313c-2.974 0-4.952 2.257-4.952 4.952 0 2.707 1.893 4.867 4.782 4.867 3.144 0 5.037-2.16 5.037-4.867 0-2.792-1.978-4.952-4.867-4.952zm-3.957 60.81h7.926v-43.599h-7.926v43.599zm40.2-19.19c-1.444 4.054-2.694 7.659-3.69 11.264h-.267c-.91-3.605-2.075-7.21-3.52-11.264l-8.557-24.409h-8.472l16.58 43.599h7.574l17.114-43.599h-8.29l-8.472 24.409zm40.673-25.307c-12.708 0-20.452 10.268-20.452 23.413 0 13.158 8.023 22.079 21.436 22.079 6.942 0 11.81-1.542 14.601-2.792l-1.444-5.68c-2.877 1.262-6.397 2.257-12.065 2.257-8.023 0-14.784-4.418-14.966-15.135h30.636c.182-.91.267-2.076.267-3.702 0-8.011-3.69-20.44-18.013-20.44zm-12.793 18.461c.632-5.498 4.054-12.793 12.162-12.793 8.921 0 11.082 7.841 10.985 12.793h-23.147zm47.883-8.92h-.279l-.352-8.643h-6.943c.267 4.054.365 8.46.365 13.606v29.993h7.925V197.93c0-1.262.085-2.61.268-3.69 1.08-5.947 5.049-10.086 10.632-10.086 1.08 0 1.894 0 2.707.17v-7.477c-.728-.085-1.36-.17-2.16-.17-5.317 0-10.184 3.69-12.163 9.54zm36.328 9.733c-5.68-2.257-8.205-3.871-8.205-7.476 0-3.241 2.525-5.948 7.21-5.948 4.054 0 7.21 1.53 8.921 2.61l1.894-5.766c-2.343-1.529-6.227-2.694-10.633-2.694-9.285 0-15.05 5.765-15.05 12.793 0 5.22 3.701 9.455 11.627 12.332 5.766 2.16 8.011 4.15 8.011 7.926 0 3.702-2.694 6.493-8.375 6.493-3.957 0-8.108-1.626-10.535-3.07l-1.894 5.947c3.059 1.808 7.477 3.07 12.247 3.07 10.184 0 16.216-5.413 16.216-13.156 0-6.482-3.957-10.269-11.434-13.06zm21.654 25.223h7.926v-43.599h-7.926v43.599zm3.957-60.81c-2.974 0-4.952 2.257-4.952 4.952 0 2.707 1.893 4.867 4.782 4.867 3.143 0 5.037-2.16 5.037-4.867 0-2.792-1.978-4.952-4.867-4.952zm26.69 6.76l-7.755 2.343v8.108h-6.749v6.032h6.749v23.778c0 5.147.898 9.018 3.07 11.446 1.882 2.075 4.855 3.338 8.557 3.338 3.06 0 5.487-.546 7.028-1.08l-.364-6.045c-1.177.364-2.44.546-4.6.546-4.406 0-5.936-3.058-5.936-8.472v-23.51h11.35v-6.033h-11.35v-10.45zm50.918 27.298c0-8.654-3.24-17.745-16.568-17.745-5.498 0-10.815 1.53-14.42 3.775l1.809 5.316c3.059-2.076 7.295-3.24 11.434-3.24 8.92-.086 9.916 6.48 9.916 10v.899c-16.847-.085-26.217 5.68-26.217 16.216 0 6.311 4.503 12.526 13.327 12.526 6.214 0 10.9-3.071 13.34-6.494h.266l.631 5.499h7.113c-.449-2.974-.631-6.664-.631-10.451v-16.3zm-7.659 12.065a9 9 0 0 1-.352 2.525c-1.262 3.69-4.964 7.294-10.73 7.294-3.957 0-7.38-2.342-7.38-7.561 0-8.473 9.82-10.002 18.462-9.82v7.562zm20.5 14.687h7.926v-43.599h-7.925v43.599zm3.957-60.81c-2.973 0-4.952 2.257-4.952 4.952 0 2.707 1.894 4.867 4.782 4.867 3.144 0 5.038-2.16 5.038-4.867 0-2.792-1.979-4.952-4.868-4.952zm24.36 25.853h-.278l-.352-8.642h-6.943c.267 4.054.364 8.46.364 13.606v29.993h7.926V197.93c0-1.262.085-2.61.267-3.69 1.08-5.947 5.05-10.086 10.632-10.086 1.08 0 1.894 0 2.707.17v-7.477c-.728-.085-1.36-.17-2.16-.17-5.317 0-10.184 3.69-12.162 9.54zm38.671-9.54c-12.708 0-20.452 10.268-20.452 23.413 0 13.158 8.023 22.079 21.435 22.079 6.943 0 11.81-1.542 14.602-2.792l-1.444-5.68c-2.877 1.262-6.397 2.257-12.077 2.257-8.011 0-14.772-4.418-14.954-15.135h30.635c.183-.91.267-2.076.267-3.702 0-8.011-3.69-20.44-18.012-20.44zm-12.793 18.461c.631-5.498 4.054-12.793 12.162-12.793 8.921 0 11.082 7.841 10.985 12.793h-23.147zm97.356-37.93h-7.84v26.035h-.183c-1.978-3.422-6.396-6.566-13.145-6.566-10.547 0-19.639 8.824-19.554 23.328 0 13.243 8.193 22.164 18.741 22.164 7.113 0 12.344-3.702 14.686-8.557h.268l.364 7.562h7.015c-.17-2.974-.352-7.392-.352-11.264v-52.702zm-7.84 45.674c0 1.262-.086 2.343-.365 3.423-1.432 5.862-6.3 9.467-11.616 9.467-8.472 0-12.878-7.294-12.878-16.13 0-9.553 4.855-16.75 13.06-16.75 5.948 0 10.269 4.138 11.434 9.09.28.996.364 2.343.364 3.338v7.562zm38.427-26.205c-12.708 0-20.452 10.268-20.452 23.413 0 13.158 8.023 22.079 21.435 22.079 6.943 0 11.81-1.542 14.602-2.792l-1.445-5.68c-2.876 1.262-6.396 2.257-12.064 2.257-8.023 0-14.784-4.418-14.966-15.135h30.635c.182-.91.267-2.076.267-3.702 0-8.011-3.69-20.44-18.012-20.44zm-12.793 18.461c.631-5.498 4.054-12.793 12.162-12.793 8.921 0 11.082 7.841 10.985 12.793h-23.147zm94.37-34.677h-44.945v6.664h18.46v54.049h7.927v-54.05h18.558v-6.663zm17.43 16.216c-12.708 0-20.452 10.268-20.452 23.413 0 13.158 8.023 22.079 21.435 22.079 6.943 0 11.81-1.542 14.602-2.792l-1.445-5.68c-2.876 1.262-6.396 2.257-12.077 2.257-8.01 0-14.771-4.418-14.953-15.135h30.635c.182-.91.267-2.076.267-3.702 0-8.011-3.69-20.44-18.012-20.44zm-12.793 18.461c.631-5.498 4.054-12.793 12.162-12.793 8.92 0 11.081 7.841 10.984 12.793H932.56zm60.943-12.162c4.321 0 7.295 1.08 9.188 2.076l1.796-6.033c-2.16-1.177-6.299-2.342-10.984-2.342-14.237 0-23.426 9.82-23.426 23.231 0 13.34 8.557 22.26 21.715 22.26 5.85 0 10.45-1.54 12.513-2.524l-1.347-5.947c-2.257.995-5.219 2.075-9.734 2.075-8.642 0-15.124-6.214-15.124-16.313 0-9.006 5.402-16.483 15.403-16.483zm42.008-6.3c-2.973 0-5.765.802-8.108 2.161-2.427 1.348-4.406 3.423-5.668 5.669h-.182v-27.298h-7.926v63.966h7.926v-26.303c0-1.444.085-2.61.534-3.787 1.542-4.236 5.498-7.84 10.633-7.84 7.477 0 10.086 5.862 10.086 12.89v25.04h7.938v-25.95c0-14.954-9.37-18.547-15.233-18.547zm49.862 0c-7.198 0-12.247 4.055-14.408 8.109h-.182l-.449-7.21h-7.027c.267 3.605.364 7.21.364 11.798v31.8h7.926v-26.217c0-1.347.182-2.694.534-3.69 1.444-4.418 5.498-8.108 10.632-8.108 7.477 0 10.087 5.85 10.087 12.878v25.138h7.938v-25.95c0-14.954-9.37-18.547-15.415-18.547zm46.815 0c-11.98 0-21.617 8.558-21.617 23.062 0 13.777 9.188 22.43 20.9 22.43 10.451 0 21.715-7.027 21.715-23.158 0-13.242-8.472-22.333-20.998-22.333zm-.352 39.545c-7.756 0-13.158-7.21-13.158-16.762 0-8.193 4.055-16.847 13.328-16.847 9.37 0 13.072 9.285 13.072 16.665 0 9.82-5.68 16.944-13.242 16.944zm31.388 4.953h7.926v-63.966h-7.926v63.966zm39.75-44.497c-11.98 0-21.617 8.557-21.617 23.061 0 13.777 9.189 22.43 20.901 22.43 10.45 0 21.715-7.027 21.715-23.158 0-13.242-8.473-22.333-20.999-22.333zm-.352 39.544c-7.755 0-13.157-7.21-13.157-16.762 0-8.193 4.054-16.847 13.327-16.847 9.37 0 13.073 9.285 13.073 16.665 0 9.82-5.68 16.944-13.243 16.944zm61.745-32.067h-.182c-1.979-3.605-6.033-7.477-13.607-7.477-10.086 0-19.723 8.278-19.723 23.061 0 12.065 7.744 21.253 18.558 21.253 6.76 0 11.53-3.24 13.873-7.294h.183v4.77c0 11.081-5.948 15.318-14.056 15.318-5.401 0-9.904-1.627-12.793-3.508l-1.978 6.117c3.507 2.343 9.273 3.605 14.504 3.605 5.486 0 11.616-1.347 15.937-5.22 4.15-3.871 6.214-9.916 6.214-20.002v-25.307c0-5.231.097-8.836.364-11.895h-7.027l-.267 6.579zm-.996 18.461c0 1.347-.182 2.889-.63 4.236-1.615 5.05-6.033 8.108-10.985 8.108-8.472 0-12.878-7.113-12.878-15.682 0-10.086 5.4-16.483 12.963-16.483 5.862 0 9.637 3.787 11.081 8.472.364.996.45 2.16.45 3.508v7.841zm20.5 18.559h7.927v-43.599h-7.926v43.599zm3.958-60.81c-2.974 0-4.952 2.257-4.952 4.952 0 2.707 1.893 4.867 4.782 4.867 3.143 0 5.037-2.16 5.037-4.867 0-2.792-1.978-4.952-4.867-4.952zm52.459 36.753c0-8.011-3.69-20.44-18.013-20.44-12.708 0-20.452 10.268-20.452 23.413 0 13.158 8.023 22.079 21.436 22.079 6.942 0 11.81-1.542 14.601-2.792l-1.444-5.68c-2.877 1.262-6.397 2.257-12.077 2.257-8.011 0-14.772-4.418-14.954-15.135h30.636c.182-.91.267-2.076.267-3.702zm-30.806-1.979c.632-5.498 4.054-12.793 12.162-12.793 8.921 0 11.082 7.841 10.985 12.793h-23.147z"/></svg>