<?xml version="1.0" encoding="utf-8"?>
<!-- Generator: Adobe Illustrator 26.4.1, SVG Export Plug-In . SVG Version: 6.00 Build 0)  -->
<svg version="1.1" id="Calque_1" xmlns="http://www.w3.org/2000/svg" xmlns:xlink="http://www.w3.org/1999/xlink" x="0px" y="0px"
	 viewBox="0 0 198.43 198.43" style="enable-background:new 0 0 198.43 198.43;" xml:space="preserve">
<style type="text/css">
	.st0{fill:#FFFFFF;}
	.st1{display:none;}
</style>
<g>
	<polygon points="3657.55,1764.06 3657.55,2216.46 3587.95,2216.46 3587.95,1963.2 3434.34,2181.06 3433.14,2181.06 
		3284.34,1973.96 3284.34,2216.46 3216.54,2216.46 3216.54,1764.06 3217.14,1764.06 3435.1,2072.66 3656.34,1764.06 	"/>
	<path d="M4112.34,2216.46v-436.8h124.2c43.2,0,80.1,6.6,110.7,19.8c30.6,13.2,55.2,30.6,73.8,52.2c18.6,21.6,32.3,45.7,41.1,72.3
		c8.79,26.61,13.2,53.31,13.2,80.1c0,32.8-5.8,62.2-17.4,88.2c-11.61,26.01-27.4,48.3-47.4,66.9c-20.01,18.6-43.2,32.8-69.6,42.6
		c-26.4,9.81-54,14.7-82.8,14.7H4112.34z M4182.54,2149.26h61.8c23.6,0,45.09-3.3,64.5-9.9c19.4-6.6,36.09-16.2,50.1-28.8
		c14-12.6,24.9-28.2,32.7-46.8c7.8-18.6,11.7-40.1,11.7-64.5c0-27.2-4.5-50.49-13.5-69.9c-9-19.4-20.8-35.19-35.4-47.4
		c-14.61-12.2-30.51-21.09-47.7-26.7c-17.2-5.6-34.2-8.4-51-8.4h-73.2V2149.26z"/>
	<g>
		<polygon points="3619.65,2029.05 3674.23,1974.47 3829.52,2129.75 3904.75,2054.51 3766.44,1916.2 3821.03,1861.61 
			3959.34,1999.92 4036.27,1922.99 3875.05,1761.77 3929.64,1707.18 4147.57,1925.11 3831.64,2241.05 		"/>
		<path class="st0" d="M3929.64,1714.25l210.86,210.86l-308.86,308.86l-204.92-204.92l47.52-47.52l155.28,155.28l82.31-82.31
			l-138.31-138.31l47.52-47.52l138.31,138.31l84-84l-161.22-161.22L3929.64,1714.25 M3929.64,1700.11l-7.07,7.07l-47.52,47.52
			l-7.07,7.07l7.07,7.07l154.15,154.15l-69.86,69.86l-131.24-131.24l-7.07-7.07l-7.07,7.07l-47.52,47.52l-7.07,7.07l7.07,7.07
			l131.24,131.24l-68.17,68.17l-148.21-148.21l-7.07-7.07l-7.07,7.07l-47.52,47.52l-7.07,7.07l7.07,7.07l204.92,204.92l7.07,7.07
			l7.07-7.07l308.86-308.86l7.07-7.07l-7.07-7.07l-210.86-210.86L3929.64,1700.11L3929.64,1700.11z"/>
	</g>
</g>
<g>
	<polygon points="4393.82,633.57 4393.82,1085.97 4324.22,1085.97 4324.22,832.71 4170.61,1050.57 4169.41,1050.57 4020.61,843.47 
		4020.61,1085.97 3952.81,1085.97 3952.81,633.57 3953.41,633.57 4171.37,942.17 4392.61,633.57 	"/>
	<path d="M4576.44,1085.97v-436.8h124.2c43.2,0,80.1,6.6,110.7,19.8c30.6,13.2,55.2,30.6,73.8,52.2c18.6,21.6,32.3,45.7,41.1,72.3
		c8.79,26.61,13.2,53.31,13.2,80.1c0,32.8-5.8,62.2-17.4,88.2c-11.61,26.01-27.4,48.3-47.4,66.9c-20.01,18.6-43.2,32.8-69.6,42.6
		c-26.4,9.81-54,14.7-82.8,14.7H4576.44z M4646.64,1018.77h61.8c23.6,0,45.09-3.3,64.5-9.9c19.4-6.6,36.09-16.2,50.1-28.8
		c14-12.6,24.9-28.2,32.7-46.8c7.8-18.6,11.7-40.1,11.7-64.5c0-27.2-4.5-50.49-13.5-69.9c-9-19.4-20.8-35.19-35.4-47.4
		c-14.61-12.2-30.51-21.09-47.7-26.7c-17.2-5.6-34.2-8.4-51-8.4h-73.2V1018.77z"/>
	<g>
		<polygon points="4410.65,663.64 4445.71,628.58 4537.16,720.03 4578.57,678.63 4497.11,597.17 4532.17,562.11 4613.62,643.57 
			4656.03,601.17 4561.08,506.22 4596.13,471.16 4727.39,602.42 4538.41,791.39 		"/>
		<path class="st0" d="M4596.13,478.23l124.19,124.19l-181.91,181.91l-120.69-120.69l27.99-27.99l91.45,91.45l48.48-48.48
			l-81.46-81.46l27.99-27.99l81.46,81.46l49.47-49.47l-94.95-94.95L4596.13,478.23 M4596.13,464.09l-7.07,7.07l-27.99,27.99
			l-7.07,7.07l7.07,7.07l87.88,87.88l-35.33,35.33l-74.39-74.39l-7.07-7.07l-7.07,7.07l-27.99,27.99l-7.07,7.07l7.07,7.07
			l74.39,74.39l-34.33,34.33l-84.38-84.38l-7.07-7.07l-7.07,7.07l-27.99,27.99l-7.07,7.07l7.07,7.07l120.69,120.69l7.07,7.07
			l7.07-7.07l181.91-181.91l7.07-7.07l-7.07-7.07L4603.2,471.16L4596.13,464.09L4596.13,464.09z"/>
	</g>
</g>
<polygon points="3145.97,1933.31 2914.53,1614.01 2914.22,1762.8 3088.45,2014.07 "/>
<polygon class="st1" points="1072.5,534.83 895.13,407.63 944.83,547.87 1045.46,630.22 "/>
<polygon class="st1" points="1118.86,432.12 743.67,310.67 885.08,264.4 1177.88,352.45 "/>
<polygon class="st1" points="1001.94,595.16 1065.22,509.5 910.73,458.14 "/>
<g>
	<path d="M131.54,37.95l-10.59,0.02l-57.64,79.62L5.59,37.97v122.51h23.67v-51.28l33.97,49.31h0.14l33.9-49.31v51.28h34.26
		c38.06,0,61.29-24.48,61.29-61.01C192.83,62.73,169.6,37.88,131.54,37.95z M131.68,136.88h-10.74v-62l9.31-13.49h1.21
		c23.3,0,37.48,15.93,37.48,38C168.94,121.32,154.84,136.88,131.68,136.88z"/>
	<g>
		<polygon points="141.6,93.96 130.58,109.77 120.93,109.77 120.93,93.96 130.58,93.96 		"/>
	</g>
</g>
<path d="M2380.24-846.6l-42.46,0.09l-231.15,319.3l-231.44-319.3v491.27h94.92V-560.9l136.23,197.75h0.58l135.94-197.75v205.66
	h137.38c152.64,0,245.8-98.15,245.8-244.64C2626.04-747.24,2532.88-846.89,2380.24-846.6z M2380.83-449.86h-43.05v-248.61
	l37.32-54.08h4.85c93.45,0,150.29,63.9,150.29,152.38C2530.24-512.28,2473.7-449.86,2380.83-449.86z"/>
<g>
	<polygon points="2420.61,-621.99 2376.42,-558.59 2337.69,-558.59 2337.69,-622.01 2376.42,-622.01 	"/>
</g>
</svg>
