<?xml version="1.0" encoding="utf-8"?>
<!-- Generator: Adobe Illustrator 24.0.0, SVG Export Plug-In . SVG Version: 6.00 Build 0)  -->
<svg version="1.1" id="Calque_1" xmlns="http://www.w3.org/2000/svg" xmlns:xlink="http://www.w3.org/1999/xlink" x="0px" y="0px"
	 viewBox="0 0 1924 1167" style="enable-background:new 0 0 1924 1167;" xml:space="preserve">
<style type="text/css">
	.st0{fill:#F97316;}
</style>
<g>
	<g>
		<path class="st0" d="M21.19,894.68V499.59h128.27c27.42,0,51.32,5.23,71.71,15.7c20.38,10.47,36.26,25.17,47.63,44.11
			c11.37,18.94,17.05,41.23,17.05,66.84v141.26c0,25.26-5.68,47.45-17.05,66.57c-11.36,19.13-27.25,34.01-47.63,44.65
			c-20.39,10.65-44.29,15.97-71.71,15.97H21.19z M102.37,818.91h47.09c16.59,0,29.95-4.69,40.05-14.07
			c10.1-9.38,15.15-21.83,15.15-37.34V626.23c0-15.15-5.06-27.42-15.15-36.8c-10.1-9.38-23.46-14.07-40.05-14.07h-47.09V818.91z"/>
		<path class="st0" d="M535.93,894.68l96.88-395.09h102.83l97.96,395.09H750.8l-18.94-89.3h-94.17l-18.94,89.3H535.93z
			 M651.21,740.43h66.57l-18.94-95.25c-2.53-13.71-5.14-27.33-7.85-40.86c-2.71-13.53-4.79-24.08-6.22-31.66
			c-1.45,7.58-3.34,18.05-5.68,31.39c-2.35,13.35-4.96,26.88-7.85,40.59L651.21,740.43z"/>
		<path class="st0" d="M1179.49,894.68V575.36h-100.13v-75.77h281.44v75.77h-100.12v319.32H1179.49z"/>
		<path class="st0" d="M1611.48,894.68l96.88-395.09h102.83l97.96,395.09h-82.81l-18.94-89.3h-94.17l-18.94,89.3H1611.48z
			 M1726.75,740.43h66.57l-18.94-95.25c-2.53-13.71-5.14-27.33-7.85-40.86c-2.71-13.53-4.79-24.08-6.22-31.66
			c-1.45,7.58-3.34,18.05-5.68,31.39c-2.35,13.35-4.96,26.88-7.85,40.59L1726.75,740.43z"/>
	</g>
	<g>
		<path class="st0" d="M156.87,424.47c-27.79,0-51.96-4.69-72.52-14.07s-36.45-22.55-47.63-39.51
			c-11.19-16.96-16.78-36.98-16.78-60.08h81.18c0,13.35,5.14,23.91,15.42,31.66c10.28,7.76,24.26,11.64,41.95,11.64
			c16.96,0,30.22-3.79,39.78-11.37c9.56-7.58,14.34-18.04,14.34-31.39c0-11.54-3.61-21.46-10.83-29.77
			c-7.22-8.3-17.32-13.89-30.31-16.78l-40.05-9.2c-33.56-7.93-59.63-22.64-78.21-44.11c-18.59-21.46-27.87-47.71-27.87-78.75
			c0-23.09,5.32-43.21,15.97-60.35c10.64-17.13,25.71-30.39,45.19-39.78c19.48-9.38,42.57-14.07,69.28-14.07
			c40.41,0,72.43,10.01,96.07,30.04c23.63,20.02,35.45,47,35.45,80.91h-81.18c0-12.62-4.42-22.54-13.26-29.77
			c-8.85-7.21-21.56-10.83-38.16-10.83c-15.52,0-27.42,3.52-35.72,10.55c-8.3,7.04-12.45,17.05-12.45,30.04
			c0,11.55,3.33,21.38,10.01,29.5c6.67,8.12,16.14,13.62,28.41,16.51l42.21,9.74c34.99,7.94,61.51,22.28,79.56,43.03
			c18.04,20.75,27.06,47.18,27.06,79.29c0,23.09-5.68,43.48-17.05,61.16c-11.37,17.68-27.25,31.39-47.63,41.13
			C208.73,419.6,184.65,424.47,156.87,424.47z"/>
		<path class="st0" d="M311.11,419.06l96.88-395.09h102.83l97.96,395.09h-82.81l-18.94-89.3h-94.17l-18.94,89.3H311.11z
			 M426.39,264.81h66.57l-18.94-95.25c-2.53-13.71-5.14-27.33-7.85-40.86c-2.71-13.53-4.79-24.08-6.22-31.66
			c-1.45,7.58-3.34,18.05-5.68,31.39c-2.35,13.35-4.96,26.88-7.85,40.59L426.39,264.81z"/>
		<path class="st0" d="M643.96,419.06V23.97h243.55v69.28H723.52v88.76h145.05v69.28H723.52v98.5h163.99v69.28H643.96z"/>
		<path class="st0" d="M1172.18,424.47c-27.06,0-50.43-4.6-70.09-13.8c-19.67-9.2-34.91-22.37-45.73-39.51
			c-10.83-17.13-16.24-37.25-16.24-60.35h81.18c0,14.44,4.41,25.71,13.26,33.83c8.84,8.12,21.38,12.18,37.61,12.18
			c16.59,0,29.23-3.97,37.88-11.91c8.66-7.93,12.99-19.3,12.99-34.1v-32.47c0-14.79-4.42-26.25-13.26-34.37
			c-8.85-8.12-21.38-12.18-37.61-12.18h-46.54v-69.82l79.56-70.36h-146.13V23.97H1288v69.82l-115.82,102.29v-33.01
			c40.77,0,72.97,10.28,96.61,30.85c23.63,20.57,35.45,48.53,35.45,83.89v33.01c0,23.09-5.33,43.21-15.97,60.35
			c-10.65,17.14-25.89,30.31-45.73,39.51C1222.69,419.87,1199.24,424.47,1172.18,424.47z"/>
		<path class="st0" d="M1477.96,424.47c-26.71,0-49.79-4.96-69.28-14.88c-19.48-9.92-34.55-23.81-45.19-41.67
			c-10.65-17.86-15.97-38.7-15.97-62.51V137.63c0-23.81,5.32-44.65,15.97-62.51c10.64-17.86,25.71-31.75,45.19-41.67
			c19.49-9.92,42.39-14.88,68.74-14.88c26.7,0,49.7,4.96,69.01,14.88c19.3,9.93,34.28,23.81,44.92,41.67
			c10.64,17.86,15.97,38.7,15.97,62.51v167.78c0,23.81-5.33,44.65-15.97,62.51c-10.65,17.86-25.62,31.75-44.92,41.67
			C1527.12,419.51,1504.3,424.47,1477.96,424.47z M1477.42,354.12c16.96,0,30.22-4.33,39.78-12.99
			c9.56-8.66,14.34-20.57,14.34-35.72V137.63c0-15.15-4.79-27.06-14.34-35.72c-9.56-8.66-22.82-12.99-39.78-12.99
			c-16.96,0-30.22,4.33-39.78,12.99c-9.56,8.66-14.34,20.57-14.34,35.72v167.78c0,15.15,4.87,27.06,14.61,35.72
			C1447.66,349.79,1460.82,354.12,1477.42,354.12z M1477.42,258.86c-11.19,0-20.3-3.6-27.33-10.82
			c-7.03-7.21-10.55-16.59-10.55-28.14c0-11.54,3.52-20.74,10.55-27.6c7.04-6.85,16.14-10.28,27.33-10.28
			c11.54,0,20.74,3.43,27.6,10.28c6.85,6.86,10.28,16.06,10.28,27.6c0,11.55-3.44,20.93-10.28,28.14
			C1498.17,255.26,1488.97,258.86,1477.42,258.86z"/>
		<path class="st0" d="M1778.34,424.47c-27.06,0-50.43-4.6-70.09-13.8c-19.67-9.2-34.91-22.37-45.73-39.51
			c-10.83-17.13-16.24-37.25-16.24-60.35h81.18c0,14.44,4.41,25.71,13.26,33.83c8.84,8.12,21.38,12.18,37.61,12.18
			c16.59,0,29.23-3.97,37.88-11.91c8.66-7.93,12.99-19.3,12.99-34.1v-32.47c0-14.79-4.42-26.25-13.26-34.37
			c-8.85-8.12-21.38-12.18-37.61-12.18h-46.54v-69.82l79.56-70.36h-146.13V23.97h228.94v69.82l-115.82,102.29v-33.01
			c40.77,0,72.97,10.28,96.61,30.85c23.63,20.57,35.45,48.53,35.45,83.89v33.01c0,23.09-5.33,43.21-15.97,60.35
			c-10.65,17.14-25.89,30.31-45.73,39.51C1828.85,419.87,1805.4,424.47,1778.34,424.47z"/>
	</g>
	<g>
		<g>
			<path class="st0" d="M61.32,1152.7L17.11,974.39h37.86L79.64,1087c0.81,3.91,1.83,8.88,3.05,14.9
				c1.22,6.03,2.16,11.16,2.81,15.39c0.65-4.23,1.47-9.36,2.44-15.39c0.98-6.02,1.87-11.07,2.69-15.14l23.94-112.36h36.88
				l-43.72,178.31H61.32z"/>
			<path class="st0" d="M177.34,1152.7v-31.75h35.42v-114.8h-35.42v-31.75h107.47v31.75h-35.42v114.8h35.42v31.75H177.34z"/>
			<path class="st0" d="M377.87,1155.14c-12.54,0-23.45-2.12-32.73-6.35c-9.28-4.23-16.45-10.17-21.49-17.83
				c-5.05-7.65-7.57-16.69-7.57-27.11h36.64c0,6.03,2.32,10.79,6.96,14.29c4.64,3.5,10.95,5.25,18.93,5.25
				c7.65,0,13.64-1.71,17.95-5.13c4.31-3.42,6.47-8.14,6.47-14.17c0-5.21-1.63-9.69-4.89-13.43c-3.26-3.74-7.82-6.27-13.68-7.57
				l-18.07-4.15c-15.14-3.58-26.91-10.22-35.29-19.91c-8.39-9.69-12.58-21.53-12.58-35.54c0-10.42,2.4-19.5,7.21-27.23
				c4.8-7.73,11.6-13.72,20.4-17.95c8.79-4.23,19.21-6.35,31.26-6.35c18.24,0,32.69,4.52,43.36,13.56c10.66,9.04,16,21.21,16,36.52
				H400.1c0-5.7-2-10.17-5.98-13.43c-3.99-3.25-9.73-4.88-17.22-4.88c-7,0-12.38,1.59-16.12,4.76c-3.75,3.18-5.62,7.69-5.62,13.56
				c0,5.21,1.5,9.65,4.52,13.31c3.01,3.66,7.29,6.15,12.82,7.45l19.05,4.4c15.79,3.58,27.76,10.06,35.91,19.42
				c8.14,9.37,12.21,21.29,12.21,35.78c0,10.42-2.56,19.62-7.69,27.6c-5.13,7.98-12.3,14.17-21.49,18.56
				C401.27,1152.94,390.41,1155.14,377.87,1155.14z"/>
			<path class="st0" d="M524.66,1155.14c-18.07,0-32.36-4.88-42.87-14.66c-10.5-9.77-15.75-23.12-15.75-40.06V974.39h36.64v125.79
				c0,7.49,1.91,13.23,5.74,17.22c3.82,3.99,9.24,5.98,16.24,5.98c6.84,0,12.21-1.99,16.12-5.98c3.91-3.99,5.86-9.73,5.86-17.22
				V974.39h36.64v126.04c0,16.77-5.25,30.08-15.75,39.94C557.03,1150.22,542.74,1155.14,524.66,1155.14z"/>
			<path class="st0" d="M604.29,1152.7l43.72-178.31h46.41l44.21,178.31h-37.37l-8.55-40.3h-42.5l-8.55,40.3H604.29z
				 M656.31,1083.09h30.04l-8.55-42.99c-1.14-6.19-2.32-12.33-3.54-18.44c-1.22-6.11-2.16-10.87-2.81-14.29
				c-0.65,3.42-1.51,8.14-2.56,14.17c-1.06,6.03-2.24,12.13-3.54,18.32L656.31,1083.09z"/>
			<path class="st0" d="M768.18,1152.7V974.39h36.64v144.11h72.06v34.2H768.18z"/>
			<path class="st0" d="M911.31,1152.7v-31.75h35.42v-114.8h-35.42v-31.75h107.47v31.75h-35.42v114.8h35.42v31.75H911.31z"/>
			<path class="st0" d="M1111.84,1155.14c-12.54,0-23.45-2.12-32.73-6.35c-9.28-4.23-16.45-10.17-21.49-17.83
				c-5.05-7.65-7.57-16.69-7.57-27.11h36.64c0,6.03,2.32,10.79,6.96,14.29c4.64,3.5,10.95,5.25,18.93,5.25
				c7.65,0,13.64-1.71,17.95-5.13c4.31-3.42,6.47-8.14,6.47-14.17c0-5.21-1.63-9.69-4.88-13.43c-3.26-3.74-7.82-6.27-13.68-7.57
				l-18.08-4.15c-15.14-3.58-26.91-10.22-35.29-19.91c-8.39-9.69-12.58-21.53-12.58-35.54c0-10.42,2.4-19.5,7.21-27.23
				c4.8-7.73,11.6-13.72,20.4-17.95c8.79-4.23,19.21-6.35,31.26-6.35c18.23,0,32.69,4.52,43.35,13.56c10.66,9.04,16,21.21,16,36.52
				h-36.64c0-5.7-2-10.17-5.98-13.43c-3.99-3.25-9.73-4.88-17.22-4.88c-7,0-12.38,1.59-16.12,4.76c-3.75,3.18-5.62,7.69-5.62,13.56
				c0,5.21,1.5,9.65,4.52,13.31c3.01,3.66,7.29,6.15,12.82,7.45l19.05,4.4c15.79,3.58,27.76,10.06,35.91,19.42
				c8.14,9.37,12.21,21.29,12.21,35.78c0,10.42-2.56,19.62-7.69,27.6c-5.13,7.98-12.3,14.17-21.5,18.56
				C1135.25,1152.94,1124.38,1155.14,1111.84,1155.14z"/>
			<path class="st0" d="M1191.47,1152.7l43.72-178.31h46.41l44.21,178.31h-37.37l-8.55-40.3h-42.5l-8.55,40.3H1191.47z
				 M1243.49,1083.09h30.04l-8.55-42.99c-1.14-6.19-2.32-12.33-3.54-18.44c-1.22-6.11-2.16-10.87-2.81-14.29
				c-0.65,3.42-1.51,8.14-2.56,14.17c-1.06,6.03-2.24,12.13-3.54,18.32L1243.49,1083.09z"/>
			<path class="st0" d="M1387.11,1152.7v-144.11h-45.19v-34.2h127.01v34.2h-45.19v144.11H1387.11z"/>
			<path class="st0" d="M1498.49,1152.7v-31.75h35.42v-114.8h-35.42v-31.75h107.47v31.75h-35.42v114.8h35.42v31.75H1498.49z"/>
			<path class="st0" d="M1699.02,1155.14c-11.89,0-22.23-2.24-31.02-6.72s-15.59-10.75-20.4-18.81c-4.8-8.06-7.21-17.46-7.21-28.21
				v-75.72c0-10.75,2.4-20.15,7.21-28.21c4.8-8.06,11.6-14.33,20.4-18.81c8.79-4.48,19.13-6.72,31.02-6.72
				c12.05,0,22.43,2.24,31.14,6.72c8.71,4.48,15.47,10.75,20.27,18.81c4.8,8.06,7.21,17.46,7.21,28.21v75.72
				c0,10.75-2.4,20.15-7.21,28.21c-4.8,8.06-11.56,14.33-20.27,18.81C1721.45,1152.9,1711.07,1155.14,1699.02,1155.14z
				 M1699.02,1123.39c7.33,0,12.82-1.91,16.49-5.74c3.66-3.82,5.5-9.24,5.5-16.24v-75.72c0-7.16-1.79-12.62-5.37-16.37
				c-3.58-3.74-9.12-5.62-16.61-5.62c-7.49,0-13.03,1.87-16.61,5.62c-3.58,3.75-5.37,9.2-5.37,16.37v75.72c0,7,1.83,12.42,5.5,16.24
				C1686.2,1121.48,1691.69,1123.39,1699.02,1123.39z"/>
			<path class="st0" d="M1787.19,1152.7V974.39h42.74l46.16,138c-0.49-6.02-1.06-12.98-1.71-20.88c-0.65-7.9-1.18-15.79-1.59-23.69
				c-0.41-7.9-0.61-14.61-0.61-20.15v-73.28h32.24v178.31h-42.75l-45.67-138c0.49,5.21,0.98,11.4,1.46,18.56
				c0.49,7.17,0.94,14.41,1.34,21.74c0.4,7.33,0.61,13.84,0.61,19.54v78.16H1787.19z"/>
		</g>
	</g>
</g>
</svg>
